<?xml version="1.0" standalone="no"?>
<!DOCTYPE svg PUBLIC "-//W3C//DTD SVG 20010904//EN"
 "http://www.w3.org/TR/2001/REC-SVG-20010904/DTD/svg10.dtd">
<svg version="1.0" xmlns="http://www.w3.org/2000/svg"
 width="1024.000000pt" height="1024.000000pt" viewBox="0 0 1024.000000 1024.000000"
 preserveAspectRatio="xMidYMid meet">
<metadata>
Created by potrace 1.14, written by Peter Selinger 2001-2017
</metadata>
<g transform="translate(0.000000,1024.000000) scale(0.100000,-0.100000)"
fill="#000000" stroke="none">
<path d="M4848 10235 c-2 -1 -52 -6 -113 -9 -60 -4 -123 -9 -140 -11 -16 -2
-52 -6 -80 -9 -46 -5 -261 -37 -345 -52 -258 -43 -778 -195 -975 -284 -21 -10
-97 -43 -175 -76 -94 -40 -462 -230 -500 -258 -8 -6 -31 -20 -50 -30 -130 -71
-432 -287 -625 -446 -49 -41 -108 -91 -130 -110 -85 -75 -344 -334 -415 -416
-41 -48 -80 -91 -85 -98 -131 -142 -328 -417 -484 -676 -255 -422 -458 -908
-575 -1376 -37 -150 -66 -284 -82 -384 -3 -19 -8 -48 -11 -65 -3 -16 -6 -41
-8 -55 -1 -14 -5 -43 -8 -65 -4 -22 -9 -62 -12 -90 -3 -27 -7 -66 -10 -85 -26
-214 -27 -850 0 -1024 2 -11 6 -48 10 -81 9 -87 17 -147 21 -170 3 -11 7 -36
10 -55 9 -59 11 -71 34 -185 21 -102 31 -150 43 -200 3 -11 8 -33 12 -50 31
-133 104 -362 175 -554 75 -203 236 -544 345 -731 20 -36 46 -81 57 -100 62
-108 302 -451 386 -552 11 -12 55 -66 98 -118 103 -125 453 -475 579 -579 55
-46 111 -93 125 -104 95 -81 534 -387 555 -387 4 0 19 -9 35 -20 52 -37 511
-276 536 -279 2 0 25 -9 50 -21 26 -11 48 -20 50 -20 2 0 23 -8 47 -19 179
-79 641 -223 822 -255 17 -3 41 -8 55 -11 14 -3 41 -8 60 -11 19 -3 38 -8 41
-10 4 -2 31 -6 60 -10 30 -3 57 -8 60 -10 4 -2 27 -6 50 -9 24 -3 76 -9 114
-15 64 -8 131 -16 225 -25 247 -25 722 -20 955 10 17 2 57 7 90 10 33 3 71 8
85 10 14 2 43 7 65 10 129 18 455 86 575 120 249 69 561 181 764 274 85 40
309 151 359 180 20 11 52 30 71 40 475 270 897 614 1306 1067 209 231 464 593
638 906 204 367 406 883 487 1248 2 8 15 65 29 125 14 61 30 139 35 175 6 36
13 76 15 90 11 58 35 240 41 300 3 36 8 88 11 115 14 143 19 534 9 680 -3 39
-7 106 -10 150 -5 74 -10 126 -20 200 -2 17 -7 53 -10 80 -3 28 -10 73 -15
100 -6 28 -12 66 -14 85 -19 150 -151 669 -186 732 -6 10 -10 24 -10 31 0 12
-98 272 -146 387 -11 25 -67 142 -127 260 -195 390 -407 709 -690 1040 -148
172 -376 402 -517 520 -36 30 -67 58 -70 62 -5 6 -186 150 -241 191 -360 269
-867 545 -1264 686 -49 18 -99 36 -110 41 -45 19 -274 89 -365 110 -19 5 -69
17 -110 28 -41 11 -91 23 -111 26 -20 3 -42 8 -50 10 -8 3 -27 8 -44 11 -116
20 -206 35 -245 40 -25 3 -58 8 -75 11 -35 6 -71 10 -175 19 -41 4 -91 9 -110
11 -38 6 -646 14 -652 9z"/>
</g>
</svg>
